HIERARCHY
ROOT SpineBase
{
  OFFSET 0.000000 0.000000 0.000000
  CHANNELS 6 Xposition Yposition Zposition Zrotation Xrotation Yrotation
  JOINT SpineMid
  {
    OFFSET 0.000000 26.427109 0.000000
    CHANNELS 3 Zrotation Xrotation Yrotation
    JOINT SpineShoulder
    {
      OFFSET -0.131164 19.659156 -0.554332
      CHANNELS 3 Zrotation Xrotation Yrotation
      JOINT Neck
      {
        OFFSET -0.082519 6.508825 -0.473948
        CHANNELS 3 Zrotation Xrotation Yrotation
        JOINT Head
        {
          OFFSET -2.606145 11.697522 0.762259
          CHANNELS 3 Zrotation Xrotation Yrotation
          End Site
          {
            OFFSET 0 0 0
          }
        }
      }
      JOINT ShoulderLeft
      {
        OFFSET -8.095694 -4.262749 12.558456
        CHANNELS 3 Zrotation Xrotation Yrotation
        JOINT ElbowLeft
        {
          OFFSET 0.821611 -23.160822 -8.451437
          CHANNELS 3 Zrotation Xrotation Yrotation
          JOINT WristLeft
          {
            OFFSET -0.095448 -21.637212 14.002740
            CHANNELS 3 Zrotation Xrotation Yrotation
            JOINT HandLeft
            {
              OFFSET -1.650731 -9.823392 1.690799
              CHANNELS 3 Zrotation Xrotation Yrotation
              JOINT HandTipLeft
              {
                OFFSET -0.364909 -2.743785 0.097345
                CHANNELS 3 Zrotation Xrotation Yrotation
                End Site
                {
                  OFFSET 0 0 0
                }
              }
              JOINT ThumbLeft
              {
                OFFSET 0.098930 0.424116 -2.800869
                CHANNELS 3 Zrotation Xrotation Yrotation
                End Site
                {
                  OFFSET 0 0 0
                }
              }
            }
          }
        }
      }
      JOINT ShoulderRight
      {
        OFFSET 4.746869 -3.806162 -13.077584
        CHANNELS 3 Zrotation Xrotation Yrotation
        JOINT ElbowRight
        {
          OFFSET 4.289074 -19.825003 -4.271998
          CHANNELS 3 Zrotation Xrotation Yrotation
          JOINT WristRight
          {
            OFFSET -3.622288 -23.648556 -2.086748
            CHANNELS 3 Zrotation Xrotation Yrotation
            JOINT HandRight
            {
              OFFSET -0.886189 -7.503657 0.591091
              CHANNELS 3 Zrotation Xrotation Yrotation
              JOINT HandTipRight
              {
                OFFSET -1.171279 -7.216775 0.673894
                CHANNELS 3 Zrotation Xrotation Yrotation
                End Site
                {
                  OFFSET 0 0 0
                }
              }
              JOINT ThumbRight
              {
                OFFSET 1.249173 -2.425012 -3.559800
                CHANNELS 3 Zrotation Xrotation Yrotation
                End Site
                {
                  OFFSET 0 0 0
                }
              }
            }
          }
        }
      }
    }
  }
  JOINT HipLeft
  {
    OFFSET -3.544908 0.338341 2.414721
    CHANNELS 3 Zrotation Xrotation Yrotation
    JOINT KneeLeft
    {
      OFFSET -0.368474 -24.223748 6.777119
      CHANNELS 3 Zrotation Xrotation Yrotation
      JOINT AnkleLeft
      {
        OFFSET 19.745920 -46.878006 7.557039
        CHANNELS 3 Zrotation Xrotation Yrotation
        JOINT FootLeft
        {
          OFFSET -5.390558 -6.700975 0.223150
          CHANNELS 3 Zrotation Xrotation Yrotation
          End Site
          {
            OFFSET 0 0 0
          }
        }
      }
    }
  }
  JOINT HipRight
  {
    OFFSET 2.545375 0.967684 -8.600266
    CHANNELS 3 Zrotation Xrotation Yrotation
    JOINT KneeRight
    {
      OFFSET 8.240926 -31.177138 2.966273
      CHANNELS 3 Zrotation Xrotation Yrotation
      JOINT AnkleRight
      {
        OFFSET 10.476058 -35.661955 6.971802
        CHANNELS 3 Zrotation Xrotation Yrotation
        JOINT FootRight
        {
          OFFSET -4.134852 -6.005102 2.261722
          CHANNELS 3 Zrotation Xrotation Yrotation
          End Site
          {
            OFFSET 0 0 0
          }
        }
      }
    }
  }
}
MOTION
Frames: 5
Frame Time: 0.033333
63.090015 69.321566 337.578636 25.489737 -12.655279 15.736517 -0.443929 -1.875160 -11.822732 -0.210186 -0.997107 1.248519 0.802505 19.329268 -6.710931 0.000000 0.000000 0.000000 -61.600116 -2.727240 21.226646 7.450595 64.567667 -30.634858 -9.284838 -30.306625 -1.165584 8.041840 12.517844 15.835590 0.000000 0.000000 0.000000 0.000000 0.000000 0.000000 -91.762390 7.179272 36.386497 17.583482 -4.368237 -13.560420 -9.601407 12.714374 -4.237635 18.508844 7.083489 4.119221 0.000000 0.000000 0.000000 0.000000 0.000000 0.000000 -5.514162 20.676534 -10.719408 -18.052140 1.905791 -2.627043 64.578831 26.382950 -70.249616 0.000000 0.000000 0.000000 -45.956676 23.239910 -2.251526 22.640832 -2.673849 1.905798 84.891535 40.172198 -92.230844 0.000000 0.000000 0.000000
63.282780 69.240994 337.024871 25.968392 -11.962065 15.455368 -0.540164 -2.243893 -11.536288 -0.311455 -1.129813 1.309417 0.152221 19.679526 -6.555468 0.000000 0.000000 0.000000 -63.368220 -2.715500 21.952396 11.354185 63.080353 -32.560800 -14.961925 -28.745212 -5.185652 12.397001 11.370622 16.793201 0.000000 0.000000 0.000000 0.000000 0.000000 0.000000 -92.743522 6.322116 36.073296 18.982156 -2.825965 -13.057989 -10.053208 11.497785 -4.826474 18.854869 8.393359 4.459552 0.000000 0.000000 0.000000 0.000000 0.000000 0.000000 -2.016869 24.549847 -11.812127 -23.995511 -7.480763 -7.563491 67.655465 33.033164 -76.630286 0.000000 0.000000 0.000000 -46.825294 21.839394 -2.684242 22.874589 -1.817123 1.983742 85.435486 39.948503 -92.651032 0.000000 0.000000 0.000000
63.355289 69.183661 336.903771 26.254601 -11.951342 15.875499 -0.468720 -2.084295 -11.953303 -0.344375 -1.076957 1.319245 -0.407659 19.623253 -6.400815 0.000000 0.000000 0.000000 -64.919324 -2.693936 22.550749 14.445492 61.401535 -34.014657 -23.926859 -26.509143 -11.653062 20.185312 12.720165 19.669634 0.000000 0.000000 0.000000 0.000000 0.000000 0.000000 -93.715142 6.208328 36.330837 19.873620 -3.302899 -13.284192 -10.649415 10.982466 -5.050847 18.117390 10.329158 4.730867 0.000000 0.000000 0.000000 0.000000 0.000000 0.000000 1.609840 27.716899 -13.580467 -31.735339 -16.672612 -14.472642 72.844330 42.450490 -86.001330 0.000000 0.000000 0.000000 -47.169458 21.889390 -2.987793 23.002925 -1.516079 2.015047 85.755205 39.793527 -92.794712 0.000000 0.000000 0.000000
63.412370 69.154072 336.769016 26.606819 -11.976299 15.813682 -0.350122 -1.868754 -11.885900 -0.369957 -0.893874 1.304672 -1.408852 19.424960 -6.089669 0.000000 0.000000 0.000000 -66.288669 -2.649903 22.898564 16.889824 59.714331 -34.967326 -32.327249 -22.875715 -17.138365 26.529187 12.211606 21.813111 0.000000 0.000000 0.000000 0.000000 0.000000 0.000000 -94.384895 6.187283 36.245860 20.186258 -3.600539 -13.427684 -10.788485 10.266120 -5.346366 17.696547 10.856584 4.703906 0.000000 0.000000 0.000000 0.000000 0.000000 0.000000 4.744222 30.532058 -14.899492 -41.224328 -25.143686 -23.377668 81.177258 53.256368 -98.928986 0.000000 0.000000 0.000000 -47.579298 21.678706 -2.886319 23.790733 -1.510088 2.129629 85.373418 39.647961 -93.259112 0.000000 0.000000 0.000000
63.404141 69.133764 336.942155 26.870103 -12.540066 16.147819 -0.131662 -1.292221 -12.191804 -0.340771 -0.699251 1.278358 -2.472883 19.395709 -5.776691 0.000000 0.000000 0.000000 -67.649149 -2.824146 23.289953 19.330540 58.520362 -35.808837 -35.225128 -20.804766 -18.655609 29.700528 12.588948 22.843143 0.000000 0.000000 0.000000 0.000000 0.000000 0.000000 -94.930699 6.828134 36.747311 19.363253 -5.266164 -14.127175 -10.269862 10.500240 -5.181120 17.591126 11.094428 4.643333 0.000000 0.000000 0.000000 0.000000 0.000000 0.000000 6.323313 31.537603 -15.721292 -49.468268 -30.100668 -31.293836 93.334751 63.435150 -115.021557 0.000000 0.000000 0.000000 -47.744657 22.467943 -2.524530 23.958133 -1.690144 2.162782 85.338624 39.497561 -93.169232 0.000000 0.000000 0.000000
